<mxfile host="Electron" agent="Mozilla/5.0 (Windows NT 10.0; Win64; x64) AppleWebKit/537.36 (KHTML, like Gecko) draw.io/27.0.5 Chrome/134.0.6998.205 Electron/35.3.0 Safari/537.36" version="27.0.5">
  <diagram name="Page-1" id="xlbXVpdazur4I2x0Cjj9">
    <mxGraphModel dx="772" dy="509" grid="1" gridSize="10" guides="1" tooltips="1" connect="1" arrows="1" fold="1" page="1" pageScale="1" pageWidth="850" pageHeight="1100" math="0" shadow="0">
      <root>
        <mxCell id="0" />
        <mxCell id="1" parent="0" />
        <mxCell id="K_P_qVJTJkzLleydtze7-1" value="&lt;b&gt;&lt;font style=&quot;font-size: 18px;&quot;&gt;Data Flow Diagram&lt;/font&gt;&lt;/b&gt;" style="text;html=1;align=center;verticalAlign=middle;whiteSpace=wrap;rounded=0;" parent="1" vertex="1">
          <mxGeometry x="20" y="10" width="180" height="50" as="geometry" />
        </mxCell>
        <mxCell id="K_P_qVJTJkzLleydtze7-2" value="" style="rounded=0;whiteSpace=wrap;html=1;fillColor=none;dashed=1;dashPattern=12 12;" parent="1" vertex="1">
          <mxGeometry x="39" y="90" width="120" height="420" as="geometry" />
        </mxCell>
        <mxCell id="K_P_qVJTJkzLleydtze7-4" value="&lt;font style=&quot;font-size: 14px;&quot;&gt;Sources&lt;/font&gt;" style="rounded=0;whiteSpace=wrap;html=1;fillColor=none;dashed=1;dashPattern=12 12;strokeColor=none;" parent="1" vertex="1">
          <mxGeometry x="40" y="50" width="120" height="60" as="geometry" />
        </mxCell>
        <mxCell id="K_P_qVJTJkzLleydtze7-16" style="edgeStyle=orthogonalEdgeStyle;rounded=0;orthogonalLoop=1;jettySize=auto;html=1;entryX=0;entryY=0.5;entryDx=0;entryDy=0;" parent="1" source="K_P_qVJTJkzLleydtze7-5" target="K_P_qVJTJkzLleydtze7-12" edge="1">
          <mxGeometry relative="1" as="geometry" />
        </mxCell>
        <mxCell id="K_P_qVJTJkzLleydtze7-17" style="edgeStyle=orthogonalEdgeStyle;rounded=0;orthogonalLoop=1;jettySize=auto;html=1;entryX=0;entryY=0.75;entryDx=0;entryDy=0;" parent="1" source="K_P_qVJTJkzLleydtze7-5" target="K_P_qVJTJkzLleydtze7-13" edge="1">
          <mxGeometry relative="1" as="geometry" />
        </mxCell>
        <mxCell id="K_P_qVJTJkzLleydtze7-18" style="edgeStyle=orthogonalEdgeStyle;rounded=0;orthogonalLoop=1;jettySize=auto;html=1;entryX=0;entryY=0.75;entryDx=0;entryDy=0;" parent="1" source="K_P_qVJTJkzLleydtze7-5" target="K_P_qVJTJkzLleydtze7-15" edge="1">
          <mxGeometry relative="1" as="geometry" />
        </mxCell>
        <mxCell id="K_P_qVJTJkzLleydtze7-5" value="" style="image;aspect=fixed;html=1;points=[];align=center;fontSize=12;image=img/lib/azure2/general/Folder_Blank.svg;" parent="1" vertex="1">
          <mxGeometry x="65.5" y="144" width="69" height="56.00000000000001" as="geometry" />
        </mxCell>
        <mxCell id="K_P_qVJTJkzLleydtze7-23" style="edgeStyle=orthogonalEdgeStyle;rounded=0;orthogonalLoop=1;jettySize=auto;html=1;" parent="1" source="K_P_qVJTJkzLleydtze7-6" target="K_P_qVJTJkzLleydtze7-20" edge="1">
          <mxGeometry relative="1" as="geometry" />
        </mxCell>
        <mxCell id="K_P_qVJTJkzLleydtze7-24" style="edgeStyle=orthogonalEdgeStyle;rounded=0;orthogonalLoop=1;jettySize=auto;html=1;entryX=0;entryY=0.75;entryDx=0;entryDy=0;" parent="1" source="K_P_qVJTJkzLleydtze7-6" target="K_P_qVJTJkzLleydtze7-21" edge="1">
          <mxGeometry relative="1" as="geometry" />
        </mxCell>
        <mxCell id="K_P_qVJTJkzLleydtze7-25" style="edgeStyle=orthogonalEdgeStyle;rounded=0;orthogonalLoop=1;jettySize=auto;html=1;entryX=0;entryY=0.75;entryDx=0;entryDy=0;" parent="1" source="K_P_qVJTJkzLleydtze7-6" target="K_P_qVJTJkzLleydtze7-22" edge="1">
          <mxGeometry relative="1" as="geometry" />
        </mxCell>
        <mxCell id="K_P_qVJTJkzLleydtze7-6" value="" style="image;aspect=fixed;html=1;points=[];align=center;fontSize=12;image=img/lib/azure2/general/Folder_Blank.svg;" parent="1" vertex="1">
          <mxGeometry x="66.5" y="313" width="69" height="56.00000000000001" as="geometry" />
        </mxCell>
        <mxCell id="K_P_qVJTJkzLleydtze7-7" value="&lt;b&gt;CRM&lt;/b&gt;" style="text;html=1;align=center;verticalAlign=middle;whiteSpace=wrap;rounded=0;" parent="1" vertex="1">
          <mxGeometry x="69" y="200" width="60" height="30" as="geometry" />
        </mxCell>
        <mxCell id="K_P_qVJTJkzLleydtze7-8" value="&lt;b&gt;ERP&lt;/b&gt;" style="text;html=1;align=center;verticalAlign=middle;whiteSpace=wrap;rounded=0;" parent="1" vertex="1">
          <mxGeometry x="71" y="369" width="60" height="30" as="geometry" />
        </mxCell>
        <mxCell id="K_P_qVJTJkzLleydtze7-10" value="" style="rounded=1;whiteSpace=wrap;html=1;fillColor=#ffe6cc;strokeColor=#d79b00;" parent="1" vertex="1">
          <mxGeometry x="220" y="90" width="120" height="420" as="geometry" />
        </mxCell>
        <mxCell id="K_P_qVJTJkzLleydtze7-11" value="&lt;b&gt;&lt;font style=&quot;font-size: 14px;&quot;&gt;Bronze Layer&lt;/font&gt;&lt;/b&gt;" style="rounded=1;whiteSpace=wrap;html=1;fillColor=#ffe6cc;strokeColor=#d79b00;" parent="1" vertex="1">
          <mxGeometry x="220" y="50" width="120" height="30" as="geometry" />
        </mxCell>
        <mxCell id="fOnxpY9jALnHXvLnqgOA-9" style="edgeStyle=orthogonalEdgeStyle;rounded=0;orthogonalLoop=1;jettySize=auto;html=1;entryX=0;entryY=0.5;entryDx=0;entryDy=0;" parent="1" source="K_P_qVJTJkzLleydtze7-12" target="fOnxpY9jALnHXvLnqgOA-3" edge="1">
          <mxGeometry relative="1" as="geometry" />
        </mxCell>
        <mxCell id="K_P_qVJTJkzLleydtze7-12" value="crm_sales_details" style="rounded=1;whiteSpace=wrap;html=1;" parent="1" vertex="1">
          <mxGeometry x="220" y="144" width="120" height="30" as="geometry" />
        </mxCell>
        <mxCell id="fOnxpY9jALnHXvLnqgOA-10" style="edgeStyle=orthogonalEdgeStyle;rounded=0;orthogonalLoop=1;jettySize=auto;html=1;entryX=0;entryY=0.5;entryDx=0;entryDy=0;" parent="1" source="K_P_qVJTJkzLleydtze7-13" target="fOnxpY9jALnHXvLnqgOA-4" edge="1">
          <mxGeometry relative="1" as="geometry" />
        </mxCell>
        <mxCell id="K_P_qVJTJkzLleydtze7-13" value="crm_cust_info" style="rounded=1;whiteSpace=wrap;html=1;" parent="1" vertex="1">
          <mxGeometry x="220" y="186" width="120" height="30" as="geometry" />
        </mxCell>
        <mxCell id="fOnxpY9jALnHXvLnqgOA-12" style="edgeStyle=orthogonalEdgeStyle;rounded=0;orthogonalLoop=1;jettySize=auto;html=1;entryX=0;entryY=0.5;entryDx=0;entryDy=0;" parent="1" source="K_P_qVJTJkzLleydtze7-15" target="fOnxpY9jALnHXvLnqgOA-5" edge="1">
          <mxGeometry relative="1" as="geometry" />
        </mxCell>
        <mxCell id="K_P_qVJTJkzLleydtze7-15" value="crm_prd_info" style="rounded=1;whiteSpace=wrap;html=1;" parent="1" vertex="1">
          <mxGeometry x="220" y="230" width="120" height="34" as="geometry" />
        </mxCell>
        <mxCell id="fOnxpY9jALnHXvLnqgOA-13" style="edgeStyle=orthogonalEdgeStyle;rounded=0;orthogonalLoop=1;jettySize=auto;html=1;entryX=0;entryY=0.5;entryDx=0;entryDy=0;" parent="1" source="K_P_qVJTJkzLleydtze7-20" target="fOnxpY9jALnHXvLnqgOA-6" edge="1">
          <mxGeometry relative="1" as="geometry" />
        </mxCell>
        <mxCell id="K_P_qVJTJkzLleydtze7-20" value="erp_cust_az12" style="rounded=1;whiteSpace=wrap;html=1;" parent="1" vertex="1">
          <mxGeometry x="220" y="300" width="120" height="30" as="geometry" />
        </mxCell>
        <mxCell id="fOnxpY9jALnHXvLnqgOA-14" style="edgeStyle=orthogonalEdgeStyle;rounded=0;orthogonalLoop=1;jettySize=auto;html=1;entryX=0;entryY=0.5;entryDx=0;entryDy=0;" parent="1" source="K_P_qVJTJkzLleydtze7-21" target="fOnxpY9jALnHXvLnqgOA-7" edge="1">
          <mxGeometry relative="1" as="geometry" />
        </mxCell>
        <mxCell id="K_P_qVJTJkzLleydtze7-21" value="erp_loc_a101" style="rounded=1;whiteSpace=wrap;html=1;" parent="1" vertex="1">
          <mxGeometry x="220" y="342" width="120" height="30" as="geometry" />
        </mxCell>
        <mxCell id="fOnxpY9jALnHXvLnqgOA-15" style="edgeStyle=orthogonalEdgeStyle;rounded=0;orthogonalLoop=1;jettySize=auto;html=1;entryX=0;entryY=0.5;entryDx=0;entryDy=0;" parent="1" source="K_P_qVJTJkzLleydtze7-22" target="fOnxpY9jALnHXvLnqgOA-8" edge="1">
          <mxGeometry relative="1" as="geometry" />
        </mxCell>
        <mxCell id="K_P_qVJTJkzLleydtze7-22" value="erp_px_cat_g1v2" style="rounded=1;whiteSpace=wrap;html=1;" parent="1" vertex="1">
          <mxGeometry x="220" y="386" width="120" height="34" as="geometry" />
        </mxCell>
        <mxCell id="fOnxpY9jALnHXvLnqgOA-1" value="" style="rounded=1;whiteSpace=wrap;html=1;fillColor=#f5f5f5;strokeColor=#666666;fontColor=#333333;" parent="1" vertex="1">
          <mxGeometry x="425" y="90" width="120" height="420" as="geometry" />
        </mxCell>
        <mxCell id="fOnxpY9jALnHXvLnqgOA-2" value="&lt;b&gt;&lt;font style=&quot;font-size: 14px;&quot;&gt;Silver Layer&lt;/font&gt;&lt;/b&gt;" style="rounded=1;whiteSpace=wrap;html=1;fillColor=#f5f5f5;strokeColor=#666666;fontColor=#333333;" parent="1" vertex="1">
          <mxGeometry x="425" y="50" width="120" height="30" as="geometry" />
        </mxCell>
        <mxCell id="3tl_w6-xDaAqWn9mnJ_L-14" style="edgeStyle=orthogonalEdgeStyle;rounded=0;orthogonalLoop=1;jettySize=auto;html=1;entryX=0;entryY=0.5;entryDx=0;entryDy=0;jumpStyle=gap;jumpSize=10;" edge="1" parent="1" source="fOnxpY9jALnHXvLnqgOA-3" target="3tl_w6-xDaAqWn9mnJ_L-5">
          <mxGeometry relative="1" as="geometry" />
        </mxCell>
        <mxCell id="fOnxpY9jALnHXvLnqgOA-3" value="crm_sales_details" style="rounded=1;whiteSpace=wrap;html=1;" parent="1" vertex="1">
          <mxGeometry x="425" y="144" width="120" height="30" as="geometry" />
        </mxCell>
        <mxCell id="3tl_w6-xDaAqWn9mnJ_L-11" style="edgeStyle=orthogonalEdgeStyle;rounded=0;orthogonalLoop=1;jettySize=auto;html=1;entryX=0;entryY=0.75;entryDx=0;entryDy=0;jumpStyle=gap;jumpSize=10;" edge="1" parent="1" source="fOnxpY9jALnHXvLnqgOA-4" target="3tl_w6-xDaAqWn9mnJ_L-6">
          <mxGeometry relative="1" as="geometry" />
        </mxCell>
        <mxCell id="fOnxpY9jALnHXvLnqgOA-4" value="crm_cust_info" style="rounded=1;whiteSpace=wrap;html=1;" parent="1" vertex="1">
          <mxGeometry x="425" y="186" width="120" height="30" as="geometry" />
        </mxCell>
        <mxCell id="3tl_w6-xDaAqWn9mnJ_L-16" style="edgeStyle=orthogonalEdgeStyle;rounded=0;orthogonalLoop=1;jettySize=auto;html=1;entryX=0;entryY=0.75;entryDx=0;entryDy=0;jumpStyle=gap;jumpSize=10;" edge="1" parent="1" source="fOnxpY9jALnHXvLnqgOA-5" target="3tl_w6-xDaAqWn9mnJ_L-7">
          <mxGeometry relative="1" as="geometry" />
        </mxCell>
        <mxCell id="fOnxpY9jALnHXvLnqgOA-5" value="crm_prd_info" style="rounded=1;whiteSpace=wrap;html=1;" parent="1" vertex="1">
          <mxGeometry x="425" y="230" width="120" height="34" as="geometry" />
        </mxCell>
        <mxCell id="3tl_w6-xDaAqWn9mnJ_L-12" style="edgeStyle=orthogonalEdgeStyle;rounded=0;orthogonalLoop=1;jettySize=auto;html=1;entryX=0;entryY=0.5;entryDx=0;entryDy=0;jumpStyle=gap;jumpSize=10;" edge="1" parent="1" source="fOnxpY9jALnHXvLnqgOA-6" target="3tl_w6-xDaAqWn9mnJ_L-6">
          <mxGeometry relative="1" as="geometry" />
        </mxCell>
        <mxCell id="fOnxpY9jALnHXvLnqgOA-6" value="erp_cust_az12" style="rounded=1;whiteSpace=wrap;html=1;" parent="1" vertex="1">
          <mxGeometry x="425" y="300" width="120" height="30" as="geometry" />
        </mxCell>
        <mxCell id="fOnxpY9jALnHXvLnqgOA-7" value="erp_loc_a101" style="rounded=1;whiteSpace=wrap;html=1;" parent="1" vertex="1">
          <mxGeometry x="425" y="342" width="120" height="30" as="geometry" />
        </mxCell>
        <mxCell id="3tl_w6-xDaAqWn9mnJ_L-15" style="edgeStyle=orthogonalEdgeStyle;rounded=0;orthogonalLoop=1;jettySize=auto;html=1;entryX=0;entryY=0.75;entryDx=0;entryDy=0;jumpStyle=gap;jumpSize=10;" edge="1" parent="1" source="fOnxpY9jALnHXvLnqgOA-8" target="3tl_w6-xDaAqWn9mnJ_L-7">
          <mxGeometry relative="1" as="geometry" />
        </mxCell>
        <mxCell id="fOnxpY9jALnHXvLnqgOA-8" value="erp_px_cat_g1v2" style="rounded=1;whiteSpace=wrap;html=1;" parent="1" vertex="1">
          <mxGeometry x="425" y="386" width="120" height="34" as="geometry" />
        </mxCell>
        <mxCell id="3tl_w6-xDaAqWn9mnJ_L-3" value="" style="rounded=1;whiteSpace=wrap;html=1;fillColor=#fff2cc;strokeColor=#d6b656;" vertex="1" parent="1">
          <mxGeometry x="630" y="90" width="120" height="420" as="geometry" />
        </mxCell>
        <mxCell id="3tl_w6-xDaAqWn9mnJ_L-4" value="&lt;b&gt;&lt;font style=&quot;font-size: 14px;&quot;&gt;Gold Layer&lt;/font&gt;&lt;/b&gt;" style="rounded=1;whiteSpace=wrap;html=1;fillColor=#fff2cc;strokeColor=#d6b656;" vertex="1" parent="1">
          <mxGeometry x="630" y="50" width="120" height="30" as="geometry" />
        </mxCell>
        <mxCell id="3tl_w6-xDaAqWn9mnJ_L-5" value="fact_sales" style="rounded=1;whiteSpace=wrap;html=1;" vertex="1" parent="1">
          <mxGeometry x="630" y="216" width="120" height="30" as="geometry" />
        </mxCell>
        <mxCell id="3tl_w6-xDaAqWn9mnJ_L-6" value="dim_customers" style="rounded=1;whiteSpace=wrap;html=1;" vertex="1" parent="1">
          <mxGeometry x="630" y="258" width="120" height="30" as="geometry" />
        </mxCell>
        <mxCell id="3tl_w6-xDaAqWn9mnJ_L-7" value="dim_products" style="rounded=1;whiteSpace=wrap;html=1;" vertex="1" parent="1">
          <mxGeometry x="630" y="302" width="120" height="34" as="geometry" />
        </mxCell>
        <mxCell id="3tl_w6-xDaAqWn9mnJ_L-13" style="edgeStyle=orthogonalEdgeStyle;rounded=0;orthogonalLoop=1;jettySize=auto;html=1;entryX=0.017;entryY=0.455;entryDx=0;entryDy=0;entryPerimeter=0;jumpStyle=gap;jumpSize=10;" edge="1" parent="1" source="fOnxpY9jALnHXvLnqgOA-7" target="3tl_w6-xDaAqWn9mnJ_L-3">
          <mxGeometry relative="1" as="geometry" />
        </mxCell>
      </root>
    </mxGraphModel>
  </diagram>
</mxfile>
